<svg xmlns="http://www.w3.org/2000/svg" viewBox="0 0 240 80" fill="none">
  <!-- Cup body -->
  <path d="M20 25h40l-4 45c-.5 5-4 8-9 8H33c-5 0-8.5-3-9-8L20 25z" fill="#d4792a"/>
  <!-- Cup lid -->
  <rect x="17" y="20" width="46" height="7" rx="3.5" fill="#3a170c"/>
  <!-- Straw -->
  <rect x="48" y="5" width="4" height="40" rx="2" fill="#c25f20" transform="rotate(8 50 25)"/>
  <!-- Cream top -->
  <path d="M22 25c0-4 6-8 18-8s18 4 18 8" fill="#fdf9f0" opacity="0.9"/>
  <!-- Boba pearls -->
  <circle cx="30" cy="58" r="4" fill="#3a170c" opacity="0.8"/>
  <circle cx="40" cy="62" r="3.5" fill="#3a170c" opacity="0.7"/>
  <circle cx="50" cy="57" r="4" fill="#3a170c" opacity="0.8"/>
  <circle cx="35" cy="52" r="3" fill="#3a170c" opacity="0.6"/>
  <circle cx="45" cy="53" r="3" fill="#3a170c" opacity="0.6"/>
  <!-- Brand text -->
  <text x="75" y="42" font-family="serif" font-weight="700" font-size="22" fill="#3a170c">MilkTea</text>
  <text x="75" y="62" font-family="serif" font-weight="700" font-size="26" fill="#d4792a">Iku</text>
  <!-- Decorative dots -->
  <circle cx="185" cy="30" r="3" fill="#d4792a" opacity="0.4"/>
  <circle cx="195" cy="45" r="2.5" fill="#e9bc7d" opacity="0.5"/>
  <circle cx="180" cy="55" r="2" fill="#d4792a" opacity="0.3"/>
</svg>
